<svg width="24.000000" height="24.000000" viewBox="0 0 24 24" fill="none" xmlns="http://www.w3.org/2000/svg" xmlns:xlink="http://www.w3.org/1999/xlink">
	<desc>
			Created with Pixso.
	</desc>
	<defs>
		<clipPath id="clip10_1547">
			<rect id="carbon:chat" rx="0.000000" width="23.000000" height="23.000000" transform="translate(0.500000 0.500000)" fill="white" fill-opacity="0"/>
		</clipPath>
	</defs>
	<rect id="carbon:chat" rx="0.000000" width="23.000000" height="23.000000" transform="translate(0.500000 0.500000)" fill="#FFFFFF" fill-opacity="0"/>
	<g clip-path="url(#clip10_1547)">
		<path id="Vector" d="M13.3 22.5L12 21.75L15 16.5L19.5 16.5C19.89 16.5 20.27 16.34 20.56 16.06C20.84 15.77 21 15.39 21 15L21 6C21 5.6 20.84 5.22 20.56 4.93C20.27 4.65 19.89 4.5 19.5 4.5L4.5 4.5C4.1 4.5 3.72 4.65 3.43 4.93C3.15 5.22 3 5.6 3 6L3 15C3 15.39 3.15 15.77 3.43 16.06C3.72 16.34 4.1 16.5 4.5 16.5L11.25 16.5L11.25 18L4.5 18C3.7 18 2.94 17.68 2.37 17.12C1.81 16.55 1.5 15.79 1.5 15L1.5 6C1.5 5.2 1.81 4.44 2.37 3.87C2.94 3.31 3.7 3 4.5 3L19.5 3C20.29 3 21.05 3.31 21.62 3.87C22.18 4.44 22.5 5.2 22.5 6L22.5 15C22.5 15.79 22.18 16.55 21.62 17.12C21.05 17.68 20.29 18 19.5 18L15.87 18L13.3 22.5Z" fill="#FFFFFF" fill-opacity="1.000000" fill-rule="nonzero"/>
		<path id="Vector" d="M6 7.5L18 7.5L18 9L6 9L6 7.5ZM6 12L13.5 12L13.5 13.5L6 13.5L6 12Z" fill="#FFFFFF" fill-opacity="1.000000" fill-rule="nonzero"/>
	</g>
</svg>
