<svg xmlns="http://www.w3.org/2000/svg" width="32" height="32" viewBox="0 0 32 32" fill="none">
    <path d="M27.5021 6.46045H4.49792C4.28101 6.4607 4.07307 6.547 3.91973 6.70041C3.76638 6.85381 3.68017 7.06179 3.68 7.27869V8.92477C3.68 9.00061 3.76224 9.08765 3.82944 9.12285L15.921 16.0294C15.9519 16.0471 15.987 16.0563 16.0227 16.056C16.0592 16.0561 16.095 16.0463 16.1264 16.0278L27.8525 9.12957C27.9184 9.09277 28.0931 8.99549 28.1587 8.95069C28.2381 8.89661 28.32 8.84765 28.32 8.75069V7.27837C28.3197 7.06152 28.2335 6.85363 28.0802 6.70029C27.9268 6.54696 27.7189 6.4607 27.5021 6.46045ZM28.2179 11.4067C28.1864 11.3887 28.1508 11.3794 28.1145 11.3796C28.0783 11.3799 28.0428 11.3896 28.0115 11.408L21.3757 15.3123C21.3492 15.3277 21.3266 15.3489 21.3095 15.3742C21.2923 15.3996 21.2811 15.4284 21.2766 15.4587C21.2722 15.489 21.2746 15.5199 21.2837 15.5491C21.2928 15.5783 21.3084 15.6051 21.3293 15.6275L27.9661 22.7817C27.9851 22.8024 28.0082 22.8189 28.0339 22.8301C28.0597 22.8413 28.0874 22.8471 28.1155 22.847C28.1697 22.8469 28.2217 22.8254 28.26 22.787C28.2983 22.7487 28.3199 22.6967 28.32 22.6425V11.5843C28.3201 11.5483 28.3108 11.5129 28.2928 11.4818C28.2749 11.4506 28.2491 11.4247 28.2179 11.4067ZM19.4634 16.6233C19.4319 16.589 19.3895 16.5666 19.3435 16.5597C19.2974 16.5528 19.2504 16.562 19.2102 16.5856L16.5504 18.1507C16.3946 18.2407 16.218 18.2887 16.038 18.2899C15.858 18.2911 15.6808 18.2454 15.5238 18.1574L13.183 16.8201C13.1452 16.7986 13.1016 16.7897 13.0584 16.7946C13.0152 16.7996 12.9747 16.8181 12.9427 16.8476L4.05376 25.0928C4.03045 25.1146 4.01256 25.1415 4.00151 25.1714C3.99045 25.2013 3.98654 25.2334 3.99008 25.2651C3.99363 25.2968 4.00453 25.3273 4.02191 25.354C4.0393 25.3808 4.0627 25.4031 4.09024 25.4192C4.22848 25.5005 4.36192 25.5392 4.4976 25.5392H27.2666C27.3064 25.5393 27.3454 25.5276 27.3787 25.5057C27.412 25.4838 27.4381 25.4526 27.4538 25.416C27.4697 25.3796 27.4747 25.3393 27.4679 25.3001C27.4612 25.2609 27.4432 25.2245 27.416 25.1955L19.4634 16.6233ZM10.9869 15.8723C11.0104 15.8505 11.0285 15.8235 11.0397 15.7935C11.0509 15.7634 11.0548 15.7312 11.0513 15.6993C11.0477 15.6674 11.0367 15.6369 11.0191 15.61C11.0015 15.5832 10.9779 15.5609 10.9501 15.5449L3.98496 11.5667C3.95387 11.549 3.9187 11.5399 3.88295 11.5401C3.84721 11.5403 3.81215 11.5499 3.78127 11.5679C3.7504 11.5859 3.7248 11.6117 3.70702 11.6427C3.68925 11.6737 3.67993 11.7089 3.68 11.7446V22.183C3.67977 22.2229 3.69124 22.2619 3.71299 22.2953C3.73473 22.3288 3.7658 22.3551 3.80234 22.371C3.83888 22.3869 3.8793 22.3918 3.91858 22.385C3.95786 22.3782 3.99429 22.3601 4.02336 22.3328L10.9869 15.8723Z" fill="#192E51"/>
</svg>