<svg xmlns="http://www.w3.org/2000/svg" width="32" height="32" viewBox="0 0 32 32" fill="none">
    <path d="M30.6447 26.3756V13.25L28.6113 14.3073V26.3742L27.2554 30H32L30.6447 26.3756Z" fill="#192E51"/>
    <path d="M13.9136 20.0576L5.56592 15.7171V20.0492C5.56592 22.969 10.1179 25.3359 15.7329 25.3359C21.3481 25.3359 25.8999 22.969 25.8999 20.0492V15.717L17.5515 20.0579C16.1226 20.6466 15.3427 20.6464 13.9136 20.0576Z" fill="#192E51"/>
    <path d="M16.6422 18.1668L31.0907 10.6538C31.5909 10.3937 31.5909 9.96821 31.0907 9.70806L16.6422 2.19509C16.1422 1.93497 15.3237 1.93497 14.8235 2.19509L0.375052 9.70806C-0.125017 9.96818 -0.125017 10.3937 0.375052 10.6538L14.8235 18.1668C15.3237 18.4269 16.1422 18.4269 16.6422 18.1668Z" fill="#192E51"/>
</svg>