<svg xmlns="http://www.w3.org/2000/svg" width="32" height="32" viewBox="0 0 32 32" fill="none">
    <g clip-path="url(#clip0_726_775)">
        <mask id="mask0_726_775" style="mask-type:luminance" maskUnits="userSpaceOnUse" x="0" y="0" width="32" height="32">
            <path d="M0 0H32V32H0V0Z" fill="white"/>
        </mask>
        <g mask="url(#mask0_726_775)">
            <path d="M10.6669 10.6669H0C0 4.77568 4.77568 0 10.6669 0V10.6669Z" fill="#E24500"/>
            <path d="M10.6669 21.3331C4.77568 21.3331 0 16.5581 0 10.6669H10.6669V21.3331Z" fill="#1A748E"/>
            <path d="M32 21.3331H21.3331V10.6662C27.2243 10.6662 32 15.4419 32 21.3331Z" fill="#5FC6E0"/>
            <path d="M10.6669 32C4.77568 32 0 27.2243 0 21.3331H10.6669V32Z" fill="#FECF91"/>
            <path d="M21.3331 32V21.3331H32C32 27.2243 27.2243 32 21.3331 32Z" fill="#1A748E"/>
            <path d="M21.3331 10.6669H10.6669V0C16.5574 0 21.3331 4.77568 21.3331 10.6669Z" fill="#FF7A2E"/>
            <path d="M21.3331 21.3331H10.6669V10.6662C16.5574 10.6662 21.3331 15.4419 21.3331 21.3331Z" fill="#5FC6E0"/>
            <path d="M10.6669 32V21.3331H21.3331C21.3331 27.2243 16.5581 32 10.6669 32Z" fill="#FFBB01"/>
            <path d="M30.1849 5.33313C30.1849 6.50687 29.7187 7.63254 28.8887 8.4625C28.0588 9.29246 26.9331 9.75873 25.7593 9.75873C24.5856 9.75873 23.4599 9.29246 22.63 8.4625C21.8 7.63254 21.3337 6.50687 21.3337 5.33313C21.3337 4.15939 21.8 3.03372 22.63 2.20376C23.4599 1.3738 24.5856 0.907532 25.7593 0.907532C26.9331 0.907532 28.0588 1.3738 28.8887 2.20376C29.7187 3.03372 30.1849 4.15939 30.1849 5.33313Z" fill="#FFF033"/>
        </g>
    </g>
    <defs>
        <clipPath id="clip0_726_775">
            <rect width="32" height="32" fill="white"/>
        </clipPath>
    </defs>
</svg>