<svg xmlns="http://www.w3.org/2000/svg" width="32" height="32" viewBox="0 0 32 32" fill="none">
    <g clip-path="url(#clip0_709_2084)">
        <path d="M27.2133 4.1875H12.5983C9.95892 4.1875 7.81152 6.33489 7.81152 8.97446V9.65429H16.1913C19.5188 9.65429 22.2257 12.3614 22.2257 15.6887V18.638L24.5486 20.9608C24.7493 21.1616 25.015 21.2722 25.2966 21.2722C25.8826 21.2722 26.3594 20.7961 26.3594 20.2109V18.2604H27.213C29.8526 18.2604 31.9999 16.113 31.9999 13.4735V8.97431C32.0001 6.33489 29.8527 4.1875 27.2133 4.1875Z" fill="#192E51"/>
        <path d="M16.1914 11.2026H7.81143H4.48614C4.09909 11.2026 3.72333 11.2517 3.36492 11.3438C1.42994 11.8417 0 13.5982 0 15.6888V20.7187C0 21.4929 0.19616 22.2214 0.541415 22.8571C0.610466 22.9842 0.685555 23.1076 0.766063 23.2269C0.927233 23.4657 1.11085 23.688 1.31383 23.8908C2.12572 24.7027 3.24725 25.2048 4.48614 25.2048H6.30593V26.9537C6.30593 26.9963 6.3098 27.0373 6.31537 27.0774C6.31677 27.0878 6.31847 27.098 6.32017 27.108C6.32652 27.1447 6.33457 27.1805 6.34526 27.2147C6.34603 27.2173 6.34665 27.2201 6.34742 27.2228C6.35919 27.2593 6.3739 27.2938 6.39 27.3276C6.39418 27.3362 6.39867 27.3449 6.40316 27.3534C6.41849 27.3825 6.43505 27.4109 6.45348 27.4377C6.45611 27.4414 6.45828 27.4456 6.46091 27.4493C6.48181 27.4788 6.50503 27.5064 6.52949 27.5327C6.53584 27.5395 6.5425 27.5462 6.549 27.5528C6.57068 27.5748 6.59328 27.5956 6.61712 27.6149C6.62177 27.6186 6.6261 27.6228 6.6309 27.6265C6.65877 27.6484 6.68819 27.668 6.71853 27.6863C6.72627 27.6909 6.73417 27.6953 6.74207 27.6996C6.76823 27.7143 6.79517 27.7276 6.82257 27.7396C6.82877 27.7423 6.83496 27.7454 6.84115 27.7479C6.87382 27.7612 6.90742 27.7724 6.94148 27.7817C6.94968 27.7838 6.95804 27.7857 6.9664 27.7877C6.99536 27.7947 7.02462 27.8003 7.05419 27.8043C7.06162 27.8054 7.06905 27.8068 7.07664 27.8075C7.11209 27.8114 7.1477 27.8131 7.18347 27.8125C7.1909 27.8123 7.19833 27.8117 7.20576 27.8114C7.23734 27.81 7.26877 27.8071 7.3002 27.8021C7.30655 27.8012 7.31274 27.8006 7.31909 27.7995C7.35454 27.7931 7.38969 27.784 7.42468 27.7728C7.43258 27.7704 7.44032 27.7674 7.44821 27.7646C7.48057 27.7532 7.51246 27.74 7.54389 27.7242C7.54761 27.7224 7.55132 27.721 7.55504 27.7191C7.58879 27.7015 7.62177 27.6806 7.65397 27.6578C7.66156 27.6524 7.66899 27.6468 7.67642 27.6412C7.70878 27.6168 7.74052 27.5905 7.77071 27.5603L10.1262 25.205H16.1918C18.6695 25.205 20.678 23.1964 20.678 20.7187V18.2605V15.6888C20.6775 13.2112 18.669 11.2026 16.1914 11.2026Z" fill="#192E51"/>
    </g>
    <defs>
        <clipPath id="clip0_709_2084">
            <rect width="32" height="32" fill="white"/>
        </clipPath>
    </defs>
</svg>