<?xml version="1.0" encoding="utf-8"?>
<!DOCTYPE svg PUBLIC "-//W3C//DTD SVG 1.1//EN" "http://www.w3.org/Graphics/SVG/1.1/DTD/svg11.dtd">
<svg version="1.1" id="Layer_1" xmlns="http://www.w3.org/2000/svg" xmlns:xlink="http://www.w3.org/1999/xlink" x="0px" y="0px"
width="1276px" height="1276px" viewBox="0 0 1276 1276" enable-background="new 0 0 1276 1276" xml:space="preserve">
<rect x="0" y="0" width="1276" height="1276" fill="rgb(255,255,255)" /><g transform="translate(88,88)"><g transform="translate(528,0) scale(3.1428571428571,3.1428571428571)"><g transform="" style="fill: rgb(0, 0, 0);">
    <path d="M13.999,0v14c0,0-9.151-4.381-14-0.551C-0.001,13.449-0.242,0,13.999,0z"/>
</g></g><g transform="translate(572,0) scale(0.44,0.44)"><g transform="" style="fill: rgb(0, 0, 0);">
<rect width="100" height="100"/>
</g></g><g transform="translate(616,0) scale(0.44,0.44)"><g transform="" style="fill: rgb(0, 0, 0);">
<rect width="100" height="100"/>
</g></g><g transform="translate(660,0) scale(3.1428571428571,3.1428571428571)"><g transform="" style="fill: rgb(0, 0, 0);">
    <path d="M13.999,13.999H0V0.028v-0.029h3.43C9.269-0.001,13.999,6.267,13.999,13.999z"/>
</g></g><g transform="translate(352,44) scale(0.088,0.088)"><g transform="" style="fill: rgb(0, 0, 0);">
<path d="M250,0c138.077,0,250,111.93,250,250c0,138.077-111.923,250-250,250C111.93,500,0,388.077,0,250C0,111.93,111.93,0,250,0z"
	/>
</g></g><g transform="translate(484,44) scale(0.088,0.088)"><g transform="" style="fill: rgb(0, 0, 0);">
<path d="M250,0c138.077,0,250,111.93,250,250c0,138.077-111.923,250-250,250C111.93,500,0,388.077,0,250C0,111.93,111.93,0,250,0z"
	/>
</g></g><g transform="translate(616,44) scale(0.44,0.44)"><g transform="" style="fill: rgb(0, 0, 0);">
<rect width="100" height="100"/>
</g></g><g transform="translate(660,44) scale(0.44,0.44)"><g transform="" style="fill: rgb(0, 0, 0);">
<rect width="100" height="100"/>
</g></g><g transform="translate(704,44) scale(3.1428571428571,3.1428571428571)"><g transform="" style="fill: rgb(0, 0, 0);">
    <path d="M13.999,13.999H0V0.028v-0.029h3.43C9.269-0.001,13.999,6.267,13.999,13.999z"/>
</g></g><g transform="translate(440,88) scale(0.088,0.088)"><g transform="" style="fill: rgb(0, 0, 0);">
<path d="M250,0c138.077,0,250,111.93,250,250c0,138.077-111.923,250-250,250C111.93,500,0,388.077,0,250C0,111.93,111.93,0,250,0z"
	/>
</g></g><g transform="translate(616,88) scale(0.44,0.44)"><g transform="" style="fill: rgb(0, 0, 0);">
<rect width="100" height="100"/>
</g></g><g transform="translate(704,88) scale(3.1428571428571,3.1428571428571)"><g transform="" style="fill: rgb(0, 0, 0);">
    <path d="M-0.001,0l14,0c0,0-4.381,9.151-0.551,14C13.448,14-0.001,14.24-0.001,0z"/>
</g></g><g transform="translate(396,132) scale(0.088,0.088)"><g transform="" style="fill: rgb(0, 0, 0);">
<path d="M250,0c138.077,0,250,111.93,250,250c0,138.077-111.923,250-250,250C111.93,500,0,388.077,0,250C0,111.93,111.93,0,250,0z"
	/>
</g></g><g transform="translate(528,132) scale(3.1428571428571,3.1428571428571)"><g transform="" style="fill: rgb(0, 0, 0);">
    <path d="M13.999-0.001v14H0.029H0v-3.431C0,4.729,6.267-0.001,13.999-0.001z"/>
</g></g><g transform="translate(572,132) scale(0.44,0.44)"><g transform="" style="fill: rgb(0, 0, 0);">
<rect width="100" height="100"/>
</g></g><g transform="translate(616,132) scale(0.44,0.44)"><g transform="" style="fill: rgb(0, 0, 0);">
<rect width="100" height="100"/>
</g></g><g transform="translate(352,176) scale(0.088,0.088)"><g transform="" style="fill: rgb(0, 0, 0);">
<path d="M250,0c138.077,0,250,111.93,250,250c0,138.077-111.923,250-250,250C111.93,500,0,388.077,0,250C0,111.93,111.93,0,250,0z"
	/>
</g></g><g transform="translate(440,176) scale(3.1428571428571,3.1428571428571)"><g transform="" style="fill: rgb(0, 0, 0);">
    <path d="M14,14H0c0,0,4.38-9.15,0.55-14C0.55,0,14-0.24,14,14z"/>
</g></g><g transform="translate(528,176) scale(3.1428571428571,3.1428571428571)"><g transform="" style="fill: rgb(0, 0, 0);">
    <path d="M-0.001,0l14,0c0,0-4.381,9.151-0.551,14C13.448,14-0.001,14.24-0.001,0z"/>
</g></g><g transform="translate(616,176) scale(0.44,0.44)"><g transform="" style="fill: rgb(0, 0, 0);">
<rect width="100" height="100"/>
</g></g><g transform="translate(660,176) scale(3.1428571428571,3.1428571428571)"><g transform="" style="fill: rgb(0, 0, 0);">
    <path d="M13.999,13.999H0V0.028v-0.029h3.43C9.269-0.001,13.999,6.267,13.999,13.999z"/>
</g></g><g transform="translate(396,220) scale(3.1428571428571,3.1428571428571)"><g transform="" style="fill: rgb(0, 0, 0);">
    <path d="M13.999,0v14c0,0-9.151-4.381-14-0.551C-0.001,13.449-0.242,0,13.999,0z"/>
</g></g><g transform="translate(440,220) scale(0.44,0.44)"><g transform="" style="fill: rgb(0, 0, 0);">
<rect width="100" height="100"/>
</g></g><g transform="translate(484,220) scale(3.1428571428571,3.1428571428571)"><g transform="" style="fill: rgb(0, 0, 0);">
    <path d="M0,14V0c0,0,9.15,4.38,14,0.55C14,0.55,14.24,14,0,14z"/>
</g></g><g transform="translate(572,220) scale(3.1428571428571,3.1428571428571)"><g transform="" style="fill: rgb(0, 0, 0);">
    <path d="M13.999,0v14c0,0-9.151-4.381-14-0.551C-0.001,13.449-0.242,0,13.999,0z"/>
</g></g><g transform="translate(616,220) scale(0.44,0.44)"><g transform="" style="fill: rgb(0, 0, 0);">
<rect width="100" height="100"/>
</g></g><g transform="translate(660,220) scale(0.44,0.44)"><g transform="" style="fill: rgb(0, 0, 0);">
<rect width="100" height="100"/>
</g></g><g transform="translate(704,220) scale(3.1428571428571,3.1428571428571)"><g transform="" style="fill: rgb(0, 0, 0);">
    <path d="M13.999,13.999H0V0.028v-0.029h3.43C9.269-0.001,13.999,6.267,13.999,13.999z"/>
</g></g><g transform="translate(352,264) scale(0.088,0.088)"><g transform="" style="fill: rgb(0, 0, 0);">
<path d="M250,0c138.077,0,250,111.93,250,250c0,138.077-111.923,250-250,250C111.93,500,0,388.077,0,250C0,111.93,111.93,0,250,0z"
	/>
</g></g><g transform="translate(440,264) scale(3.1428571428571,3.1428571428571)"><g transform="" style="fill: rgb(0, 0, 0);">
    <path d="M-0.001,0l14,0c0,0-4.381,9.151-0.551,14C13.448,14-0.001,14.24-0.001,0z"/>
</g></g><g transform="translate(528,264) scale(0.088,0.088)"><g transform="" style="fill: rgb(0, 0, 0);">
<path d="M250,0c138.077,0,250,111.93,250,250c0,138.077-111.923,250-250,250C111.93,500,0,388.077,0,250C0,111.93,111.93,0,250,0z"
	/>
</g></g><g transform="translate(616,264) scale(3.1428571428571,3.1428571428571)"><g transform="" style="fill: rgb(0, 0, 0);">
    <path d="M-0.001,0l14,0c0,0-4.381,9.151-0.551,14C13.448,14-0.001,14.24-0.001,0z"/>
</g></g><g transform="translate(704,264) scale(3.1428571428571,3.1428571428571)"><g transform="" style="fill: rgb(0, 0, 0);">
    <path d="M-0.001,0l14,0c0,0-4.381,9.151-0.551,14C13.448,14-0.001,14.24-0.001,0z"/>
</g></g><g transform="translate(484,308) scale(0.088,0.088)"><g transform="" style="fill: rgb(0, 0, 0);">
<path d="M250,0c138.077,0,250,111.93,250,250c0,138.077-111.923,250-250,250C111.93,500,0,388.077,0,250C0,111.93,111.93,0,250,0z"
	/>
</g></g><g transform="translate(572,308) scale(3.1428571428571,3.1428571428571)"><g transform="" style="fill: rgb(0, 0, 0);">
    <path d="M14,14H0c0,0,4.38-9.15,0.55-14C0.55,0,14-0.24,14,14z"/>
</g></g><g transform="translate(660,308) scale(0.088,0.088)"><g transform="" style="fill: rgb(0, 0, 0);">
<path d="M250,0c138.077,0,250,111.93,250,250c0,138.077-111.923,250-250,250C111.93,500,0,388.077,0,250C0,111.93,111.93,0,250,0z"
	/>
</g></g><g transform="translate(0,352) scale(3.1428571428571,3.1428571428571)"><g transform="" style="fill: rgb(0, 0, 0);">
    <path d="M14,14H0c0,0,4.38-9.15,0.55-14C0.55,0,14-0.24,14,14z"/>
</g></g><g transform="translate(88,352) scale(3.1428571428571,3.1428571428571)"><g transform="" style="fill: rgb(0, 0, 0);">
    <path d="M14,14H0c0,0,4.38-9.15,0.55-14C0.55,0,14-0.24,14,14z"/>
</g></g><g transform="translate(176,352) scale(0.088,0.088)"><g transform="" style="fill: rgb(0, 0, 0);">
<path d="M250,0c138.077,0,250,111.93,250,250c0,138.077-111.923,250-250,250C111.93,500,0,388.077,0,250C0,111.93,111.93,0,250,0z"
	/>
</g></g><g transform="translate(264,352) scale(0.088,0.088)"><g transform="" style="fill: rgb(0, 0, 0);">
<path d="M250,0c138.077,0,250,111.93,250,250c0,138.077-111.923,250-250,250C111.93,500,0,388.077,0,250C0,111.93,111.93,0,250,0z"
	/>
</g></g><g transform="translate(396,352) scale(3.1428571428571,3.1428571428571)"><g transform="" style="fill: rgb(0, 0, 0);">
    <path d="M13.999,0v14c0,0-9.151-4.381-14-0.551C-0.001,13.449-0.242,0,13.999,0z"/>
</g></g><g transform="translate(440,352) scale(3.1428571428571,3.1428571428571)"><g transform="" style="fill: rgb(0, 0, 0);">
    <path d="M0,14V0c0,0,9.15,4.38,14,0.55C14,0.55,14.24,14,0,14z"/>
</g></g><g transform="translate(528,352) scale(3.1428571428571,3.1428571428571)"><g transform="" style="fill: rgb(0, 0, 0);">
    <path d="M13.999-0.001v14H0.029H0v-3.431C0,4.729,6.267-0.001,13.999-0.001z"/>
</g></g><g transform="translate(572,352) scale(3.1428571428571,3.1428571428571)"><g transform="" style="fill: rgb(0, 0, 0);">
    <path d="M0,14V0h13.971H14v3.43C14,9.27,7.732,14,0,14z"/>
</g></g><g transform="translate(704,352) scale(3.1428571428571,3.1428571428571)"><g transform="" style="fill: rgb(0, 0, 0);">
    <path d="M14,14H0c0,0,4.38-9.15,0.55-14C0.55,0,14-0.24,14,14z"/>
</g></g><g transform="translate(880,352) scale(0.088,0.088)"><g transform="" style="fill: rgb(0, 0, 0);">
<path d="M250,0c138.077,0,250,111.93,250,250c0,138.077-111.923,250-250,250C111.93,500,0,388.077,0,250C0,111.93,111.93,0,250,0z"
	/>
</g></g><g transform="translate(1012,352) scale(0.088,0.088)"><g transform="" style="fill: rgb(0, 0, 0);">
<path d="M250,0c138.077,0,250,111.93,250,250c0,138.077-111.923,250-250,250C111.93,500,0,388.077,0,250C0,111.93,111.93,0,250,0z"
	/>
</g></g><g transform="translate(0,396) scale(0.44,0.44)"><g transform="" style="fill: rgb(0, 0, 0);">
<rect width="100" height="100"/>
</g></g><g transform="translate(88,396) scale(3.1428571428571,3.1428571428571)"><g transform="" style="fill: rgb(0, 0, 0);">
    <path d="M-0.001,0l14,0c0,0-4.381,9.151-0.551,14C13.448,14-0.001,14.24-0.001,0z"/>
</g></g><g transform="translate(220,396) scale(3.1428571428571,3.1428571428571)"><g transform="" style="fill: rgb(0, 0, 0);">
    <path d="M14,14H0c0,0,4.38-9.15,0.55-14C0.55,0,14-0.24,14,14z"/>
</g></g><g transform="translate(484,396) scale(3.1428571428571,3.1428571428571)"><g transform="" style="fill: rgb(0, 0, 0);">
    <path d="M13.999-0.001v14H0.029H0v-3.431C0,4.729,6.267-0.001,13.999-0.001z"/>
</g></g><g transform="translate(528,396) scale(0.44,0.44)"><g transform="" style="fill: rgb(0, 0, 0);">
<rect width="100" height="100"/>
</g></g><g transform="translate(704,396) scale(0.44,0.44)"><g transform="" style="fill: rgb(0, 0, 0);">
<rect width="100" height="100"/>
</g></g><g transform="translate(748,396) scale(0.44,0.44)"><g transform="" style="fill: rgb(0, 0, 0);">
<rect width="100" height="100"/>
</g></g><g transform="translate(792,396) scale(0.44,0.44)"><g transform="" style="fill: rgb(0, 0, 0);">
<rect width="100" height="100"/>
</g></g><g transform="translate(836,396) scale(3.1428571428571,3.1428571428571)"><g transform="" style="fill: rgb(0, 0, 0);">
    <path d="M0,14V0c0,0,9.15,4.38,14,0.55C14,0.55,14.24,14,0,14z"/>
</g></g><g transform="translate(1056,396) scale(3.1428571428571,3.1428571428571)"><g transform="" style="fill: rgb(0, 0, 0);">
    <path d="M14,14H0c0,0,4.38-9.15,0.55-14C0.55,0,14-0.24,14,14z"/>
</g></g><g transform="translate(0,440) scale(3.1428571428571,3.1428571428571)"><g transform="" style="fill: rgb(0, 0, 0);">
        <path d="M0-0.001h14v13.97v0.029l-3.431,0.001C4.731,13.999,0,7.731,0-0.001z"/>
</g></g><g transform="translate(44,440) scale(3.1428571428571,3.1428571428571)"><g transform="" style="fill: rgb(0, 0, 0);">
    <path d="M0,14V0c0,0,9.15,4.38,14,0.55C14,0.55,14.24,14,0,14z"/>
</g></g><g transform="translate(220,440) scale(3.1428571428571,3.1428571428571)"><g transform="" style="fill: rgb(0, 0, 0);">
        <path d="M0-0.001h14v13.97v0.029l-3.431,0.001C4.731,13.999,0,7.731,0-0.001z"/>
</g></g><g transform="translate(264,440) scale(0.44,0.44)"><g transform="" style="fill: rgb(0, 0, 0);">
<rect width="100" height="100"/>
</g></g><g transform="translate(308,440) scale(0.44,0.44)"><g transform="" style="fill: rgb(0, 0, 0);">
<rect width="100" height="100"/>
</g></g><g transform="translate(352,440) scale(0.44,0.44)"><g transform="" style="fill: rgb(0, 0, 0);">
<rect width="100" height="100"/>
</g></g><g transform="translate(396,440) scale(0.44,0.44)"><g transform="" style="fill: rgb(0, 0, 0);">
<rect width="100" height="100"/>
</g></g><g transform="translate(440,440) scale(0.44,0.44)"><g transform="" style="fill: rgb(0, 0, 0);">
<rect width="100" height="100"/>
</g></g><g transform="translate(484,440) scale(0.44,0.44)"><g transform="" style="fill: rgb(0, 0, 0);">
<rect width="100" height="100"/>
</g></g><g transform="translate(528,440) scale(3.1428571428571,3.1428571428571)"><g transform="" style="fill: rgb(0, 0, 0);">
    <path d="M0,14V0h13.971H14v3.43C14,9.27,7.732,14,0,14z"/>
</g></g><g transform="translate(616,440) scale(3.1428571428571,3.1428571428571)"><g transform="" style="fill: rgb(0, 0, 0);">
    <path d="M14,14H0c0,0,4.38-9.15,0.55-14C0.55,0,14-0.24,14,14z"/>
</g></g><g transform="translate(704,440) scale(3.1428571428571,3.1428571428571)"><g transform="" style="fill: rgb(0, 0, 0);">
        <path d="M0-0.001h14v13.97v0.029l-3.431,0.001C4.731,13.999,0,7.731,0-0.001z"/>
</g></g><g transform="translate(748,440) scale(0.44,0.44)"><g transform="" style="fill: rgb(0, 0, 0);">
<rect width="100" height="100"/>
</g></g><g transform="translate(880,440) scale(0.088,0.088)"><g transform="" style="fill: rgb(0, 0, 0);">
<path d="M250,0c138.077,0,250,111.93,250,250c0,138.077-111.923,250-250,250C111.93,500,0,388.077,0,250C0,111.93,111.93,0,250,0z"
	/>
</g></g><g transform="translate(968,440) scale(3.1428571428571,3.1428571428571)"><g transform="" style="fill: rgb(0, 0, 0);">
    <path d="M13.999,0v14c0,0-9.151-4.381-14-0.551C-0.001,13.449-0.242,0,13.999,0z"/>
</g></g><g transform="translate(1012,440) scale(0.44,0.44)"><g transform="" style="fill: rgb(0, 0, 0);">
<rect width="100" height="100"/>
</g></g><g transform="translate(1056,440) scale(3.1428571428571,3.1428571428571)"><g transform="" style="fill: rgb(0, 0, 0);">
    <path d="M0,14V0h13.971H14v3.43C14,9.27,7.732,14,0,14z"/>
</g></g><g transform="translate(132,484) scale(3.1428571428571,3.1428571428571)"><g transform="" style="fill: rgb(0, 0, 0);">
    <path d="M13.999,0v14c0,0-9.151-4.381-14-0.551C-0.001,13.449-0.242,0,13.999,0z"/>
</g></g><g transform="translate(176,484) scale(3.1428571428571,3.1428571428571)"><g transform="" style="fill: rgb(0, 0, 0);">
    <path d="M13.999,13.999H0V0.028v-0.029h3.43C9.269-0.001,13.999,6.267,13.999,13.999z"/>
</g></g><g transform="translate(308,484) scale(3.1428571428571,3.1428571428571)"><g transform="" style="fill: rgb(0, 0, 0);">
    <path d="M-0.001,0l14,0c0,0-4.381,9.151-0.551,14C13.448,14-0.001,14.24-0.001,0z"/>
</g></g><g transform="translate(572,484) scale(3.1428571428571,3.1428571428571)"><g transform="" style="fill: rgb(0, 0, 0);">
    <path d="M13.999-0.001v14H0.029H0v-3.431C0,4.729,6.267-0.001,13.999-0.001z"/>
</g></g><g transform="translate(616,484) scale(0.44,0.44)"><g transform="" style="fill: rgb(0, 0, 0);">
<rect width="100" height="100"/>
</g></g><g transform="translate(660,484) scale(3.1428571428571,3.1428571428571)"><g transform="" style="fill: rgb(0, 0, 0);">
    <path d="M0,14V0c0,0,9.15,4.38,14,0.55C14,0.55,14.24,14,0,14z"/>
</g></g><g transform="translate(748,484) scale(0.44,0.44)"><g transform="" style="fill: rgb(0, 0, 0);">
<rect width="100" height="100"/>
</g></g><g transform="translate(792,484) scale(3.1428571428571,3.1428571428571)"><g transform="" style="fill: rgb(0, 0, 0);">
    <path d="M13.999,13.999H0V0.028v-0.029h3.43C9.269-0.001,13.999,6.267,13.999,13.999z"/>
</g></g><g transform="translate(1012,484) scale(0.44,0.44)"><g transform="" style="fill: rgb(0, 0, 0);">
<rect width="100" height="100"/>
</g></g><g transform="translate(0,528) scale(3.1428571428571,3.1428571428571)"><g transform="" style="fill: rgb(0, 0, 0);">
    <path d="M13.999,0v14c0,0-9.151-4.381-14-0.551C-0.001,13.449-0.242,0,13.999,0z"/>
</g></g><g transform="translate(44,528) scale(0.44,0.44)"><g transform="" style="fill: rgb(0, 0, 0);">
<rect width="100" height="100"/>
</g></g><g transform="translate(88,528) scale(3.1428571428571,3.1428571428571)"><g transform="" style="fill: rgb(0, 0, 0);">
    <path d="M0,14V0c0,0,9.15,4.38,14,0.55C14,0.55,14.24,14,0,14z"/>
</g></g><g transform="translate(176,528) scale(3.1428571428571,3.1428571428571)"><g transform="" style="fill: rgb(0, 0, 0);">
    <path d="M-0.001,0l14,0c0,0-4.381,9.151-0.551,14C13.448,14-0.001,14.24-0.001,0z"/>
</g></g><g transform="translate(264,528) scale(0.088,0.088)"><g transform="" style="fill: rgb(0, 0, 0);">
<path d="M250,0c138.077,0,250,111.93,250,250c0,138.077-111.923,250-250,250C111.93,500,0,388.077,0,250C0,111.93,111.93,0,250,0z"
	/>
</g></g><g transform="translate(396,528) scale(0.088,0.088)"><g transform="" style="fill: rgb(0, 0, 0);">
<path d="M250,0c138.077,0,250,111.93,250,250c0,138.077-111.923,250-250,250C111.93,500,0,388.077,0,250C0,111.93,111.93,0,250,0z"
	/>
</g></g><g transform="translate(572,528) scale(3.1428571428571,3.1428571428571)"><g transform="" style="fill: rgb(0, 0, 0);">
    <path d="M-0.001,0l14,0c0,0-4.381,9.151-0.551,14C13.448,14-0.001,14.24-0.001,0z"/>
</g></g><g transform="translate(748,528) scale(0.44,0.44)"><g transform="" style="fill: rgb(0, 0, 0);">
<rect width="100" height="100"/>
</g></g><g transform="translate(792,528) scale(0.44,0.44)"><g transform="" style="fill: rgb(0, 0, 0);">
<rect width="100" height="100"/>
</g></g><g transform="translate(836,528) scale(3.1428571428571,3.1428571428571)"><g transform="" style="fill: rgb(0, 0, 0);">
    <path d="M0,14V0c0,0,9.15,4.38,14,0.55C14,0.55,14.24,14,0,14z"/>
</g></g><g transform="translate(924,528) scale(3.1428571428571,3.1428571428571)"><g transform="" style="fill: rgb(0, 0, 0);">
    <path d="M14,14H0c0,0,4.38-9.15,0.55-14C0.55,0,14-0.24,14,14z"/>
</g></g><g transform="translate(1012,528) scale(3.1428571428571,3.1428571428571)"><g transform="" style="fill: rgb(0, 0, 0);">
        <path d="M0-0.001h14v13.97v0.029l-3.431,0.001C4.731,13.999,0,7.731,0-0.001z"/>
</g></g><g transform="translate(1056,528) scale(3.1428571428571,3.1428571428571)"><g transform="" style="fill: rgb(0, 0, 0);">
    <path d="M13.999,13.999H0V0.028v-0.029h3.43C9.269-0.001,13.999,6.267,13.999,13.999z"/>
</g></g><g transform="translate(44,572) scale(3.1428571428571,3.1428571428571)"><g transform="" style="fill: rgb(0, 0, 0);">
    <path d="M-0.001,0l14,0c0,0-4.381,9.151-0.551,14C13.448,14-0.001,14.24-0.001,0z"/>
</g></g><g transform="translate(308,572) scale(3.1428571428571,3.1428571428571)"><g transform="" style="fill: rgb(0, 0, 0);">
    <path d="M13.999-0.001v14H0.029H0v-3.431C0,4.729,6.267-0.001,13.999-0.001z"/>
</g></g><g transform="translate(352,572) scale(3.1428571428571,3.1428571428571)"><g transform="" style="fill: rgb(0, 0, 0);">
    <path d="M13.999,13.999H0V0.028v-0.029h3.43C9.269-0.001,13.999,6.267,13.999,13.999z"/>
</g></g><g transform="translate(440,572) scale(3.1428571428571,3.1428571428571)"><g transform="" style="fill: rgb(0, 0, 0);">
    <path d="M13.999-0.001v14H0.029H0v-3.431C0,4.729,6.267-0.001,13.999-0.001z"/>
</g></g><g transform="translate(484,572) scale(3.1428571428571,3.1428571428571)"><g transform="" style="fill: rgb(0, 0, 0);">
    <path d="M0,14V0c0,0,9.15,4.38,14,0.55C14,0.55,14.24,14,0,14z"/>
</g></g><g transform="translate(704,572) scale(3.1428571428571,3.1428571428571)"><g transform="" style="fill: rgb(0, 0, 0);">
    <path d="M13.999,0v14c0,0-9.151-4.381-14-0.551C-0.001,13.449-0.242,0,13.999,0z"/>
</g></g><g transform="translate(748,572) scale(0.44,0.44)"><g transform="" style="fill: rgb(0, 0, 0);">
<rect width="100" height="100"/>
</g></g><g transform="translate(792,572) scale(3.1428571428571,3.1428571428571)"><g transform="" style="fill: rgb(0, 0, 0);">
    <path d="M0,14V0h13.971H14v3.43C14,9.27,7.732,14,0,14z"/>
</g></g><g transform="translate(924,572) scale(3.1428571428571,3.1428571428571)"><g transform="" style="fill: rgb(0, 0, 0);">
    <path d="M-0.001,0l14,0c0,0-4.381,9.151-0.551,14C13.448,14-0.001,14.24-0.001,0z"/>
</g></g><g transform="translate(1056,572) scale(0.44,0.44)"><g transform="" style="fill: rgb(0, 0, 0);">
<rect width="100" height="100"/>
</g></g><g transform="translate(0,616) scale(0.088,0.088)"><g transform="" style="fill: rgb(0, 0, 0);">
<path d="M250,0c138.077,0,250,111.93,250,250c0,138.077-111.923,250-250,250C111.93,500,0,388.077,0,250C0,111.93,111.93,0,250,0z"
	/>
</g></g><g transform="translate(88,616) scale(3.1428571428571,3.1428571428571)"><g transform="" style="fill: rgb(0, 0, 0);">
    <path d="M13.999,0v14c0,0-9.151-4.381-14-0.551C-0.001,13.449-0.242,0,13.999,0z"/>
</g></g><g transform="translate(132,616) scale(3.1428571428571,3.1428571428571)"><g transform="" style="fill: rgb(0, 0, 0);">
    <path d="M13.999,13.999H0V0.028v-0.029h3.43C9.269-0.001,13.999,6.267,13.999,13.999z"/>
</g></g><g transform="translate(220,616) scale(3.1428571428571,3.1428571428571)"><g transform="" style="fill: rgb(0, 0, 0);">
    <path d="M13.999,0v14c0,0-9.151-4.381-14-0.551C-0.001,13.449-0.242,0,13.999,0z"/>
</g></g><g transform="translate(264,616) scale(0.44,0.44)"><g transform="" style="fill: rgb(0, 0, 0);">
<rect width="100" height="100"/>
</g></g><g transform="translate(308,616) scale(0.44,0.44)"><g transform="" style="fill: rgb(0, 0, 0);">
<rect width="100" height="100"/>
</g></g><g transform="translate(352,616) scale(0.44,0.44)"><g transform="" style="fill: rgb(0, 0, 0);">
<rect width="100" height="100"/>
</g></g><g transform="translate(440,616) scale(0.44,0.44)"><g transform="" style="fill: rgb(0, 0, 0);">
<rect width="100" height="100"/>
</g></g><g transform="translate(572,616) scale(3.1428571428571,3.1428571428571)"><g transform="" style="fill: rgb(0, 0, 0);">
    <path d="M14,14H0c0,0,4.38-9.15,0.55-14C0.55,0,14-0.24,14,14z"/>
</g></g><g transform="translate(748,616) scale(3.1428571428571,3.1428571428571)"><g transform="" style="fill: rgb(0, 0, 0);">
    <path d="M-0.001,0l14,0c0,0-4.381,9.151-0.551,14C13.448,14-0.001,14.24-0.001,0z"/>
</g></g><g transform="translate(836,616) scale(0.088,0.088)"><g transform="" style="fill: rgb(0, 0, 0);">
<path d="M250,0c138.077,0,250,111.93,250,250c0,138.077-111.923,250-250,250C111.93,500,0,388.077,0,250C0,111.93,111.93,0,250,0z"
	/>
</g></g><g transform="translate(968,616) scale(3.1428571428571,3.1428571428571)"><g transform="" style="fill: rgb(0, 0, 0);">
    <path d="M13.999,0v14c0,0-9.151-4.381-14-0.551C-0.001,13.449-0.242,0,13.999,0z"/>
</g></g><g transform="translate(1012,616) scale(0.44,0.44)"><g transform="" style="fill: rgb(0, 0, 0);">
<rect width="100" height="100"/>
</g></g><g transform="translate(1056,616) scale(3.1428571428571,3.1428571428571)"><g transform="" style="fill: rgb(0, 0, 0);">
    <path d="M0,14V0h13.971H14v3.43C14,9.27,7.732,14,0,14z"/>
</g></g><g transform="translate(44,660) scale(0.088,0.088)"><g transform="" style="fill: rgb(0, 0, 0);">
<path d="M250,0c138.077,0,250,111.93,250,250c0,138.077-111.923,250-250,250C111.93,500,0,388.077,0,250C0,111.93,111.93,0,250,0z"
	/>
</g></g><g transform="translate(132,660) scale(0.44,0.44)"><g transform="" style="fill: rgb(0, 0, 0);">
<rect width="100" height="100"/>
</g></g><g transform="translate(352,660) scale(3.1428571428571,3.1428571428571)"><g transform="" style="fill: rgb(0, 0, 0);">
    <path d="M-0.001,0l14,0c0,0-4.381,9.151-0.551,14C13.448,14-0.001,14.24-0.001,0z"/>
</g></g><g transform="translate(440,660) scale(0.44,0.44)"><g transform="" style="fill: rgb(0, 0, 0);">
<rect width="100" height="100"/>
</g></g><g transform="translate(484,660) scale(3.1428571428571,3.1428571428571)"><g transform="" style="fill: rgb(0, 0, 0);">
    <path d="M0,14V0c0,0,9.15,4.38,14,0.55C14,0.55,14.24,14,0,14z"/>
</g></g><g transform="translate(572,660) scale(0.44,0.44)"><g transform="" style="fill: rgb(0, 0, 0);">
<rect width="100" height="100"/>
</g></g><g transform="translate(616,660) scale(3.1428571428571,3.1428571428571)"><g transform="" style="fill: rgb(0, 0, 0);">
    <path d="M0,14V0c0,0,9.15,4.38,14,0.55C14,0.55,14.24,14,0,14z"/>
</g></g><g transform="translate(880,660) scale(3.1428571428571,3.1428571428571)"><g transform="" style="fill: rgb(0, 0, 0);">
    <path d="M14,14H0c0,0,4.38-9.15,0.55-14C0.55,0,14-0.24,14,14z"/>
</g></g><g transform="translate(1012,660) scale(3.1428571428571,3.1428571428571)"><g transform="" style="fill: rgb(0, 0, 0);">
    <path d="M-0.001,0l14,0c0,0-4.381,9.151-0.551,14C13.448,14-0.001,14.24-0.001,0z"/>
</g></g><g transform="translate(0,704) scale(0.088,0.088)"><g transform="" style="fill: rgb(0, 0, 0);">
<path d="M250,0c138.077,0,250,111.93,250,250c0,138.077-111.923,250-250,250C111.93,500,0,388.077,0,250C0,111.93,111.93,0,250,0z"
	/>
</g></g><g transform="translate(132,704) scale(3.1428571428571,3.1428571428571)"><g transform="" style="fill: rgb(0, 0, 0);">
        <path d="M0-0.001h14v13.97v0.029l-3.431,0.001C4.731,13.999,0,7.731,0-0.001z"/>
</g></g><g transform="translate(176,704) scale(0.44,0.44)"><g transform="" style="fill: rgb(0, 0, 0);">
<rect width="100" height="100"/>
</g></g><g transform="translate(220,704) scale(0.44,0.44)"><g transform="" style="fill: rgb(0, 0, 0);">
<rect width="100" height="100"/>
</g></g><g transform="translate(264,704) scale(3.1428571428571,3.1428571428571)"><g transform="" style="fill: rgb(0, 0, 0);">
    <path d="M0,14V0c0,0,9.15,4.38,14,0.55C14,0.55,14.24,14,0,14z"/>
</g></g><g transform="translate(440,704) scale(0.44,0.44)"><g transform="" style="fill: rgb(0, 0, 0);">
<rect width="100" height="100"/>
</g></g><g transform="translate(528,704) scale(3.1428571428571,3.1428571428571)"><g transform="" style="fill: rgb(0, 0, 0);">
    <path d="M13.999-0.001v14H0.029H0v-3.431C0,4.729,6.267-0.001,13.999-0.001z"/>
</g></g><g transform="translate(572,704) scale(0.44,0.44)"><g transform="" style="fill: rgb(0, 0, 0);">
<rect width="100" height="100"/>
</g></g><g transform="translate(704,704) scale(3.1428571428571,3.1428571428571)"><g transform="" style="fill: rgb(0, 0, 0);">
    <path d="M13.999-0.001v14H0.029H0v-3.431C0,4.729,6.267-0.001,13.999-0.001z"/>
</g></g><g transform="translate(748,704) scale(0.44,0.44)"><g transform="" style="fill: rgb(0, 0, 0);">
<rect width="100" height="100"/>
</g></g><g transform="translate(792,704) scale(0.44,0.44)"><g transform="" style="fill: rgb(0, 0, 0);">
<rect width="100" height="100"/>
</g></g><g transform="translate(836,704) scale(0.44,0.44)"><g transform="" style="fill: rgb(0, 0, 0);">
<rect width="100" height="100"/>
</g></g><g transform="translate(880,704) scale(0.44,0.44)"><g transform="" style="fill: rgb(0, 0, 0);">
<rect width="100" height="100"/>
</g></g><g transform="translate(924,704) scale(3.1428571428571,3.1428571428571)"><g transform="" style="fill: rgb(0, 0, 0);">
    <path d="M13.999,13.999H0V0.028v-0.029h3.43C9.269-0.001,13.999,6.267,13.999,13.999z"/>
</g></g><g transform="translate(352,748) scale(3.1428571428571,3.1428571428571)"><g transform="" style="fill: rgb(0, 0, 0);">
    <path d="M13.999,0v14c0,0-9.151-4.381-14-0.551C-0.001,13.449-0.242,0,13.999,0z"/>
</g></g><g transform="translate(396,748) scale(0.44,0.44)"><g transform="" style="fill: rgb(0, 0, 0);">
<rect width="100" height="100"/>
</g></g><g transform="translate(440,748) scale(0.44,0.44)"><g transform="" style="fill: rgb(0, 0, 0);">
<rect width="100" height="100"/>
</g></g><g transform="translate(484,748) scale(0.44,0.44)"><g transform="" style="fill: rgb(0, 0, 0);">
<rect width="100" height="100"/>
</g></g><g transform="translate(528,748) scale(0.44,0.44)"><g transform="" style="fill: rgb(0, 0, 0);">
<rect width="100" height="100"/>
</g></g><g transform="translate(572,748) scale(0.44,0.44)"><g transform="" style="fill: rgb(0, 0, 0);">
<rect width="100" height="100"/>
</g></g><g transform="translate(616,748) scale(3.1428571428571,3.1428571428571)"><g transform="" style="fill: rgb(0, 0, 0);">
    <path d="M13.999,13.999H0V0.028v-0.029h3.43C9.269-0.001,13.999,6.267,13.999,13.999z"/>
</g></g><g transform="translate(704,748) scale(0.44,0.44)"><g transform="" style="fill: rgb(0, 0, 0);">
<rect width="100" height="100"/>
</g></g><g transform="translate(880,748) scale(0.44,0.44)"><g transform="" style="fill: rgb(0, 0, 0);">
<rect width="100" height="100"/>
</g></g><g transform="translate(924,748) scale(0.44,0.44)"><g transform="" style="fill: rgb(0, 0, 0);">
<rect width="100" height="100"/>
</g></g><g transform="translate(1012,748) scale(3.1428571428571,3.1428571428571)"><g transform="" style="fill: rgb(0, 0, 0);">
    <path d="M13.999-0.001v14H0.029H0v-3.431C0,4.729,6.267-0.001,13.999-0.001z"/>
</g></g><g transform="translate(1056,748) scale(3.1428571428571,3.1428571428571)"><g transform="" style="fill: rgb(0, 0, 0);">
    <path d="M13.999,13.999H0V0.028v-0.029h3.43C9.269-0.001,13.999,6.267,13.999,13.999z"/>
</g></g><g transform="translate(440,792) scale(3.1428571428571,3.1428571428571)"><g transform="" style="fill: rgb(0, 0, 0);">
        <path d="M0-0.001h14v13.97v0.029l-3.431,0.001C4.731,13.999,0,7.731,0-0.001z"/>
</g></g><g transform="translate(484,792) scale(0.44,0.44)"><g transform="" style="fill: rgb(0, 0, 0);">
<rect width="100" height="100"/>
</g></g><g transform="translate(528,792) scale(0.44,0.44)"><g transform="" style="fill: rgb(0, 0, 0);">
<rect width="100" height="100"/>
</g></g><g transform="translate(572,792) scale(0.44,0.44)"><g transform="" style="fill: rgb(0, 0, 0);">
<rect width="100" height="100"/>
</g></g><g transform="translate(616,792) scale(0.44,0.44)"><g transform="" style="fill: rgb(0, 0, 0);">
<rect width="100" height="100"/>
</g></g><g transform="translate(704,792) scale(0.44,0.44)"><g transform="" style="fill: rgb(0, 0, 0);">
<rect width="100" height="100"/>
</g></g><g transform="translate(792,792) scale(0.088,0.088)"><g transform="" style="fill: rgb(0, 0, 0);">
<path d="M250,0c138.077,0,250,111.93,250,250c0,138.077-111.923,250-250,250C111.93,500,0,388.077,0,250C0,111.93,111.93,0,250,0z"
	/>
</g></g><g transform="translate(880,792) scale(0.44,0.44)"><g transform="" style="fill: rgb(0, 0, 0);">
<rect width="100" height="100"/>
</g></g><g transform="translate(924,792) scale(0.44,0.44)"><g transform="" style="fill: rgb(0, 0, 0);">
<rect width="100" height="100"/>
</g></g><g transform="translate(1012,792) scale(0.44,0.44)"><g transform="" style="fill: rgb(0, 0, 0);">
<rect width="100" height="100"/>
</g></g><g transform="translate(1056,792) scale(0.44,0.44)"><g transform="" style="fill: rgb(0, 0, 0);">
<rect width="100" height="100"/>
</g></g><g transform="translate(396,836) scale(3.1428571428571,3.1428571428571)"><g transform="" style="fill: rgb(0, 0, 0);">
    <path d="M14,14H0c0,0,4.38-9.15,0.55-14C0.55,0,14-0.24,14,14z"/>
</g></g><g transform="translate(528,836) scale(3.1428571428571,3.1428571428571)"><g transform="" style="fill: rgb(0, 0, 0);">
        <path d="M0-0.001h14v13.97v0.029l-3.431,0.001C4.731,13.999,0,7.731,0-0.001z"/>
</g></g><g transform="translate(572,836) scale(0.44,0.44)"><g transform="" style="fill: rgb(0, 0, 0);">
<rect width="100" height="100"/>
</g></g><g transform="translate(616,836) scale(0.44,0.44)"><g transform="" style="fill: rgb(0, 0, 0);">
<rect width="100" height="100"/>
</g></g><g transform="translate(704,836) scale(0.44,0.44)"><g transform="" style="fill: rgb(0, 0, 0);">
<rect width="100" height="100"/>
</g></g><g transform="translate(880,836) scale(0.44,0.44)"><g transform="" style="fill: rgb(0, 0, 0);">
<rect width="100" height="100"/>
</g></g><g transform="translate(924,836) scale(0.44,0.44)"><g transform="" style="fill: rgb(0, 0, 0);">
<rect width="100" height="100"/>
</g></g><g transform="translate(1012,836) scale(0.44,0.44)"><g transform="" style="fill: rgb(0, 0, 0);">
<rect width="100" height="100"/>
</g></g><g transform="translate(1056,836) scale(0.44,0.44)"><g transform="" style="fill: rgb(0, 0, 0);">
<rect width="100" height="100"/>
</g></g><g transform="translate(352,880) scale(3.1428571428571,3.1428571428571)"><g transform="" style="fill: rgb(0, 0, 0);">
    <path d="M13.999,0v14c0,0-9.151-4.381-14-0.551C-0.001,13.449-0.242,0,13.999,0z"/>
</g></g><g transform="translate(396,880) scale(0.44,0.44)"><g transform="" style="fill: rgb(0, 0, 0);">
<rect width="100" height="100"/>
</g></g><g transform="translate(440,880) scale(0.44,0.44)"><g transform="" style="fill: rgb(0, 0, 0);">
<rect width="100" height="100"/>
</g></g><g transform="translate(484,880) scale(3.1428571428571,3.1428571428571)"><g transform="" style="fill: rgb(0, 0, 0);">
    <path d="M13.999,13.999H0V0.028v-0.029h3.43C9.269-0.001,13.999,6.267,13.999,13.999z"/>
</g></g><g transform="translate(616,880) scale(3.1428571428571,3.1428571428571)"><g transform="" style="fill: rgb(0, 0, 0);">
    <path d="M-0.001,0l14,0c0,0-4.381,9.151-0.551,14C13.448,14-0.001,14.24-0.001,0z"/>
</g></g><g transform="translate(704,880) scale(0.44,0.44)"><g transform="" style="fill: rgb(0, 0, 0);">
<rect width="100" height="100"/>
</g></g><g transform="translate(748,880) scale(0.44,0.44)"><g transform="" style="fill: rgb(0, 0, 0);">
<rect width="100" height="100"/>
</g></g><g transform="translate(792,880) scale(0.44,0.44)"><g transform="" style="fill: rgb(0, 0, 0);">
<rect width="100" height="100"/>
</g></g><g transform="translate(836,880) scale(0.44,0.44)"><g transform="" style="fill: rgb(0, 0, 0);">
<rect width="100" height="100"/>
</g></g><g transform="translate(880,880) scale(0.44,0.44)"><g transform="" style="fill: rgb(0, 0, 0);">
<rect width="100" height="100"/>
</g></g><g transform="translate(924,880) scale(0.44,0.44)"><g transform="" style="fill: rgb(0, 0, 0);">
<rect width="100" height="100"/>
</g></g><g transform="translate(1012,880) scale(3.1428571428571,3.1428571428571)"><g transform="" style="fill: rgb(0, 0, 0);">
        <path d="M0-0.001h14v13.97v0.029l-3.431,0.001C4.731,13.999,0,7.731,0-0.001z"/>
</g></g><g transform="translate(1056,880) scale(3.1428571428571,3.1428571428571)"><g transform="" style="fill: rgb(0, 0, 0);">
    <path d="M0,14V0h13.971H14v3.43C14,9.27,7.732,14,0,14z"/>
</g></g><g transform="translate(396,924) scale(0.44,0.44)"><g transform="" style="fill: rgb(0, 0, 0);">
<rect width="100" height="100"/>
</g></g><g transform="translate(440,924) scale(0.44,0.44)"><g transform="" style="fill: rgb(0, 0, 0);">
<rect width="100" height="100"/>
</g></g><g transform="translate(484,924) scale(3.1428571428571,3.1428571428571)"><g transform="" style="fill: rgb(0, 0, 0);">
    <path d="M0,14V0h13.971H14v3.43C14,9.27,7.732,14,0,14z"/>
</g></g><g transform="translate(704,924) scale(3.1428571428571,3.1428571428571)"><g transform="" style="fill: rgb(0, 0, 0);">
    <path d="M-0.001,0l14,0c0,0-4.381,9.151-0.551,14C13.448,14-0.001,14.24-0.001,0z"/>
</g></g><g transform="translate(836,924) scale(3.1428571428571,3.1428571428571)"><g transform="" style="fill: rgb(0, 0, 0);">
        <path d="M0-0.001h14v13.97v0.029l-3.431,0.001C4.731,13.999,0,7.731,0-0.001z"/>
</g></g><g transform="translate(880,924) scale(0.44,0.44)"><g transform="" style="fill: rgb(0, 0, 0);">
<rect width="100" height="100"/>
</g></g><g transform="translate(924,924) scale(0.44,0.44)"><g transform="" style="fill: rgb(0, 0, 0);">
<rect width="100" height="100"/>
</g></g><g transform="translate(968,924) scale(3.1428571428571,3.1428571428571)"><g transform="" style="fill: rgb(0, 0, 0);">
    <path d="M0,14V0c0,0,9.15,4.38,14,0.55C14,0.55,14.24,14,0,14z"/>
</g></g><g transform="translate(352,968) scale(3.1428571428571,3.1428571428571)"><g transform="" style="fill: rgb(0, 0, 0);">
    <path d="M13.999,0v14c0,0-9.151-4.381-14-0.551C-0.001,13.449-0.242,0,13.999,0z"/>
</g></g><g transform="translate(396,968) scale(0.44,0.44)"><g transform="" style="fill: rgb(0, 0, 0);">
<rect width="100" height="100"/>
</g></g><g transform="translate(440,968) scale(0.44,0.44)"><g transform="" style="fill: rgb(0, 0, 0);">
<rect width="100" height="100"/>
</g></g><g transform="translate(572,968) scale(0.088,0.088)"><g transform="" style="fill: rgb(0, 0, 0);">
<path d="M250,0c138.077,0,250,111.93,250,250c0,138.077-111.923,250-250,250C111.93,500,0,388.077,0,250C0,111.93,111.93,0,250,0z"
	/>
</g></g><g transform="translate(660,968) scale(3.1428571428571,3.1428571428571)"><g transform="" style="fill: rgb(0, 0, 0);">
    <path d="M14,14H0c0,0,4.38-9.15,0.55-14C0.55,0,14-0.24,14,14z"/>
</g></g><g transform="translate(880,968) scale(0.44,0.44)"><g transform="" style="fill: rgb(0, 0, 0);">
<rect width="100" height="100"/>
</g></g><g transform="translate(1056,968) scale(0.088,0.088)"><g transform="" style="fill: rgb(0, 0, 0);">
<path d="M250,0c138.077,0,250,111.93,250,250c0,138.077-111.923,250-250,250C111.93,500,0,388.077,0,250C0,111.93,111.93,0,250,0z"
	/>
</g></g><g transform="translate(396,1012) scale(0.44,0.44)"><g transform="" style="fill: rgb(0, 0, 0);">
<rect width="100" height="100"/>
</g></g><g transform="translate(440,1012) scale(0.44,0.44)"><g transform="" style="fill: rgb(0, 0, 0);">
<rect width="100" height="100"/>
</g></g><g transform="translate(484,1012) scale(3.1428571428571,3.1428571428571)"><g transform="" style="fill: rgb(0, 0, 0);">
    <path d="M0,14V0c0,0,9.15,4.38,14,0.55C14,0.55,14.24,14,0,14z"/>
</g></g><g transform="translate(660,1012) scale(3.1428571428571,3.1428571428571)"><g transform="" style="fill: rgb(0, 0, 0);">
        <path d="M0-0.001h14v13.97v0.029l-3.431,0.001C4.731,13.999,0,7.731,0-0.001z"/>
</g></g><g transform="translate(704,1012) scale(3.1428571428571,3.1428571428571)"><g transform="" style="fill: rgb(0, 0, 0);">
    <path d="M13.999,13.999H0V0.028v-0.029h3.43C9.269-0.001,13.999,6.267,13.999,13.999z"/>
</g></g><g transform="translate(880,1012) scale(3.1428571428571,3.1428571428571)"><g transform="" style="fill: rgb(0, 0, 0);">
        <path d="M0-0.001h14v13.97v0.029l-3.431,0.001C4.731,13.999,0,7.731,0-0.001z"/>
</g></g><g transform="translate(924,1012) scale(3.1428571428571,3.1428571428571)"><g transform="" style="fill: rgb(0, 0, 0);">
    <path d="M0,14V0c0,0,9.15,4.38,14,0.55C14,0.55,14.24,14,0,14z"/>
</g></g><g transform="translate(1012,1012) scale(3.1428571428571,3.1428571428571)"><g transform="" style="fill: rgb(0, 0, 0);">
    <path d="M14,14H0c0,0,4.38-9.15,0.55-14C0.55,0,14-0.24,14,14z"/>
</g></g><g transform="translate(352,1056) scale(3.1428571428571,3.1428571428571)"><g transform="" style="fill: rgb(0, 0, 0);">
    <path d="M13.999,0v14c0,0-9.151-4.381-14-0.551C-0.001,13.449-0.242,0,13.999,0z"/>
</g></g><g transform="translate(396,1056) scale(0.44,0.44)"><g transform="" style="fill: rgb(0, 0, 0);">
<rect width="100" height="100"/>
</g></g><g transform="translate(440,1056) scale(3.1428571428571,3.1428571428571)"><g transform="" style="fill: rgb(0, 0, 0);">
    <path d="M0,14V0h13.971H14v3.43C14,9.27,7.732,14,0,14z"/>
</g></g><g transform="translate(528,1056) scale(0.088,0.088)"><g transform="" style="fill: rgb(0, 0, 0);">
<path d="M250,0c138.077,0,250,111.93,250,250c0,138.077-111.923,250-250,250C111.93,500,0,388.077,0,250C0,111.93,111.93,0,250,0z"
	/>
</g></g><g transform="translate(704,1056) scale(3.1428571428571,3.1428571428571)"><g transform="" style="fill: rgb(0, 0, 0);">
        <path d="M0-0.001h14v13.97v0.029l-3.431,0.001C4.731,13.999,0,7.731,0-0.001z"/>
</g></g><g transform="translate(748,1056) scale(0.44,0.44)"><g transform="" style="fill: rgb(0, 0, 0);">
<rect width="100" height="100"/>
</g></g><g transform="translate(792,1056) scale(0.44,0.44)"><g transform="" style="fill: rgb(0, 0, 0);">
<rect width="100" height="100"/>
</g></g><g transform="translate(836,1056) scale(3.1428571428571,3.1428571428571)"><g transform="" style="fill: rgb(0, 0, 0);">
    <path d="M0,14V0c0,0,9.15,4.38,14,0.55C14,0.55,14.24,14,0,14z"/>
</g></g><g transform="translate(1012,1056) scale(3.1428571428571,3.1428571428571)"><g transform="" style="fill: rgb(0, 0, 0);">
        <path d="M0-0.001h14v13.97v0.029l-3.431,0.001C4.731,13.999,0,7.731,0-0.001z"/>
</g></g><g transform="translate(1056,1056) scale(3.1428571428571,3.1428571428571)"><g transform="" style="fill: rgb(0, 0, 0);">
    <path d="M0,14V0c0,0,9.15,4.38,14,0.55C14,0.55,14.24,14,0,14z"/>
</g></g><g transform="translate(0,0) scale(3.08, 3.08)"><g transform="" style="fill: rgb(0, 0, 0);">
<g>
	<path style="fill:none;" d="M65.859,15.008H34.141c-4.082,0-7.869,1.258-10.979,3.398c-2.419,1.665-4.428,3.864-5.848,6.421
		C15.838,27.484,15,30.526,15,33.758v32.471c0,10.344,8.586,18.76,19.145,18.76L50,84.992l15.855-0.004
		C76.414,84.988,85,76.572,85,66.229V33.758C85,23.419,76.414,15.008,65.859,15.008z"/>
	<path d="M65.859,0.008H34.141h0C18.683,0.008,5.587,10.221,1.4,24.18c-0.433,1.444-0.771,2.928-1.006,4.445
		C0.135,30.299,0,32.013,0,33.758v32.471c0,18.619,15.32,33.76,34.141,33.76L50,99.992l15.859-0.004
		c18.82,0,34.141-15.141,34.141-33.76V33.758C100,15.148,84.68,0.008,65.859,0.008z M85,66.229c0,10.344-8.586,18.76-19.145,18.76
		L50,84.992l-15.855-0.004C23.586,84.988,15,76.572,15,66.229V33.758c0-3.231,0.838-6.273,2.313-8.931
		c1.42-2.557,3.429-4.756,5.848-6.421c3.11-2.141,6.897-3.398,10.979-3.398h31.719C76.414,15.008,85,23.419,85,33.758V66.229z"/>
</g>
</g></g><g transform="translate(792,0) scale(3.08, 3.08)"><g transform="" style="fill: rgb(0, 0, 0);">
<g>
	<path style="fill:none;" d="M65.859,15.008H34.141c-4.082,0-7.869,1.258-10.979,3.398c-2.419,1.665-4.428,3.864-5.848,6.421
		C15.838,27.484,15,30.526,15,33.758v32.471c0,10.344,8.586,18.76,19.145,18.76L50,84.992l15.855-0.004
		C76.414,84.988,85,76.572,85,66.229V33.758C85,23.419,76.414,15.008,65.859,15.008z"/>
	<path d="M65.859,0.008H34.141h0C18.683,0.008,5.587,10.221,1.4,24.18c-0.433,1.444-0.771,2.928-1.006,4.445
		C0.135,30.299,0,32.013,0,33.758v32.471c0,18.619,15.32,33.76,34.141,33.76L50,99.992l15.859-0.004
		c18.82,0,34.141-15.141,34.141-33.76V33.758C100,15.148,84.68,0.008,65.859,0.008z M85,66.229c0,10.344-8.586,18.76-19.145,18.76
		L50,84.992l-15.855-0.004C23.586,84.988,15,76.572,15,66.229V33.758c0-3.231,0.838-6.273,2.313-8.931
		c1.42-2.557,3.429-4.756,5.848-6.421c3.11-2.141,6.897-3.398,10.979-3.398h31.719C76.414,15.008,85,23.419,85,33.758V66.229z"/>
</g>
</g></g><g transform="translate(0,792) scale(3.08, 3.08)"><g transform="" style="fill: rgb(0, 0, 0);">
<g>
	<path style="fill:none;" d="M65.859,15.008H34.141c-4.082,0-7.869,1.258-10.979,3.398c-2.419,1.665-4.428,3.864-5.848,6.421
		C15.838,27.484,15,30.526,15,33.758v32.471c0,10.344,8.586,18.76,19.145,18.76L50,84.992l15.855-0.004
		C76.414,84.988,85,76.572,85,66.229V33.758C85,23.419,76.414,15.008,65.859,15.008z"/>
	<path d="M65.859,0.008H34.141h0C18.683,0.008,5.587,10.221,1.4,24.18c-0.433,1.444-0.771,2.928-1.006,4.445
		C0.135,30.299,0,32.013,0,33.758v32.471c0,18.619,15.32,33.76,34.141,33.76L50,99.992l15.859-0.004
		c18.82,0,34.141-15.141,34.141-33.76V33.758C100,15.148,84.68,0.008,65.859,0.008z M85,66.229c0,10.344-8.586,18.76-19.145,18.76
		L50,84.992l-15.855-0.004C23.586,84.988,15,76.572,15,66.229V33.758c0-3.231,0.838-6.273,2.313-8.931
		c1.42-2.557,3.429-4.756,5.848-6.421c3.11-2.141,6.897-3.398,10.979-3.398h31.719C76.414,15.008,85,23.419,85,33.758V66.229z"/>
</g>
</g></g><g transform="translate(88,88) scale(1.2941176470588, 1.2941176470588)"><g transform="" style="fill: rgb(0, 0, 0);">
<circle cx="50" cy="50" r="50"/>
</g></g><g transform="translate(880,88) scale(1.2941176470588, 1.2941176470588)"><g transform="" style="fill: rgb(0, 0, 0);">
<circle cx="50" cy="50" r="50"/>
</g></g><g transform="translate(88,880) scale(1.2941176470588, 1.2941176470588)"><g transform="" style="fill: rgb(0, 0, 0);">
<circle cx="50" cy="50" r="50"/>
</g></g></g></svg>