<svg xmlns="http://www.w3.org/2000/svg" width="20" height="20" viewBox="0 0 20 20" fill="none">
    <g clip-path="url(#clip0_336_1796)">
        <path d="M13.3333 10C13.3333 10.9201 13.0078 11.7057 12.3568 12.3568C11.7057 13.0078 10.9201 13.3333 10 13.3333C9.07986 13.3333 8.29427 13.0078 7.64323 12.3568C6.99219 11.7057 6.66667 10.9201 6.66667 10C6.66667 9.07986 6.99219 8.29427 7.64323 7.64323C8.29427 6.99219 9.07986 6.66667 10 6.66667C10.9201 6.66667 11.7057 6.99219 12.3568 7.64323C13.0078 8.29427 13.3333 9.07986 13.3333 10ZM10 2.91667C8.71528 2.91667 7.53038 3.23351 6.44531 3.86719C5.36024 4.50087 4.50087 5.36024 3.86719 6.44531C3.23351 7.53038 2.91667 8.71528 2.91667 10C2.91667 11.2847 3.23351 12.4696 3.86719 13.5547C4.50087 14.6398 5.36024 15.4991 6.44531 16.1328C7.53038 16.7665 8.71528 17.0833 10 17.0833C11.2847 17.0833 12.4696 16.7665 13.5547 16.1328C14.6398 15.4991 15.4991 14.6398 16.1328 13.5547C16.7665 12.4696 17.0833 11.2847 17.0833 10C17.0833 8.71528 16.7665 7.53038 16.1328 6.44531C15.4991 5.36024 14.6398 4.50087 13.5547 3.86719C12.4696 3.23351 11.2847 2.91667 10 2.91667ZM20 10C20 11.8142 19.553 13.4874 18.6589 15.0195C17.7648 16.5516 16.5516 17.7648 15.0195 18.6589C13.4874 19.553 11.8142 20 10 20C8.18576 20 6.51259 19.553 4.98047 18.6589C3.44835 17.7648 2.23524 16.5516 1.34115 15.0195C0.447049 13.4874 0 11.8142 0 10C0 8.18576 0.447049 6.51259 1.34115 4.98047C2.23524 3.44835 3.44835 2.23524 4.98047 1.34115C6.51259 0.447049 8.18576 0 10 0C11.8142 0 13.4874 0.447049 15.0195 1.34115C16.5516 2.23524 17.7648 3.44835 18.6589 4.98047C19.553 6.51259 20 8.18576 20 10Z" fill="#EA5E20"/>
    </g>
    <defs>
        <clipPath id="clip0_336_1796">
            <rect width="20" height="20" fill="white"/>
        </clipPath>
    </defs>
</svg>